<?xml version="1.0" encoding="utf-8"?>
<!-- Generator: Adobe Illustrator 16.0.4, SVG Export Plug-In . SVG Version: 6.00 Build 0)  -->
<!DOCTYPE svg PUBLIC "-//W3C//DTD SVG 1.1//EN" "http://www.w3.org/Graphics/SVG/1.1/DTD/svg11.dtd">
<svg version="1.1" id="Layer_1" xmlns="http://www.w3.org/2000/svg" xmlns:xlink="http://www.w3.org/1999/xlink" x="0px" y="0px"
	 width="195px" height="38px" viewBox="0 0 195 38" enable-background="new 0 0 195 38" xml:space="preserve">
<g>
	<path fill="#FFFFFF" d="M164.674,0.301c-0.191-0.109-0.902,0.108-1.039,0.819c0,0.574,0.328,0.984,1.066,1.202
		c1.367,0.409,1.775,0.382,2.158,0.602c0.52,0.3,1.775,0.765,1.967,5.355c0.137,5.438-0.055,12.544-0.109,18.991
		c-0.025,6.123-0.764,6.15-1.939,6.97c-1.504,0.603-2.215,1.011-2.186,1.722c0,0.52,0.383,1.039,1.939,1.039
		c4.783-0.055,8.801-0.137,12.682-0.137c3.635,0,7.104,0.055,10.955,0.191c1.996,0.245,1.914-0.547,1.914-1.257
		c-0.027-0.657-0.271-3.799,0.139-6.641c0-2.241-0.574-2.05-0.982-2.077c-0.547-0.082-1.15,0.272-1.15,1.42
		c-0.027,1.095,0.246,3.936-4.617,4.4c-2.953,0.327-4.674,0.438-6.176,0.383c-2.078,0-2.461-0.027-2.488-1.284
		c0-3.744,0.109-8.825,0.164-11.067c0.082-1.722,1.611-1.613,3.061-1.695c1.639-0.055,4.975-0.08,5.932,3.39
		c0.436,1.804,0.791,1.774,1.365,1.694c0.629-0.109,0.9-0.465,0.82-1.804c-0.082-1.284-0.355-6.94,0.08-9.647
		c0.111-1.311-0.053-1.639-0.627-1.803c-0.602-0.109-1.23,0.246-1.584,1.475c-0.357,0.685-1.26,2.897-5.031,3.089
		c-3.824,0.163-4.07-0.054-4.016-2.323c-0.027-2.322,0.027-7.459,0.027-7.486c-0.055-0.411-0.055-2.05,1.748-1.914
		c2.299-0.027,6.342,0.11,7.352,0.327c1.039,0.247,3.799,0.521,4.129,4.701c0.16,1.147,0.764,1.12,1.092,1.147
		c0.438,0.027,0.955-0.219,0.818-1.338c-0.162-1.094-0.082-5.275,0.109-6.75c0.082-1.558-0.682-1.531-1.666-1.586
		c-0.629,0-8.035,0.273-13.471,0.41C173.938,0.956,164.674,0.301,164.674,0.301"/>
	<path fill="#FFFFFF" d="M114.036,0.464c-0.792-0.082-1.092,0.301-1.148,0.82c0.056,0.547,0.137,0.711,0.793,1.092
		c1.995,0.931,3.88,1.094,4.264,6.396v19.265c-0.274,2.788,0.218,4.563-3.498,6.56c-1.203,0.682-1.449,1.01-1.394,1.639
		c0.137,0.793,0.847,0.793,0.873,0.765c1.04,0.138,3.581-0.246,6.887-0.108c2.158-0.082,5.329,0.191,6.559,0.081
		c0.737-0.219,0.901-0.382,0.901-1.01c0.055-0.438-0.191-0.931-0.956-1.284c-1.149-0.549-4.592-1.367-4.892-6.615l-0.029-15.33
		l10.878,23.174c0.109,0.328,0.492,1.148,1.229,1.093c0.602-0.027,1.559-0.927,2.021-1.938l10.221-22.19v18.31
		c0,0.027,0.191,3.061-1.721,3.416c-0.875,0.272-1.283,0.9-1.229,1.366c0.055,0.545,0.49,0.929,1.064,0.956
		c0.547,0.027,3.826-0.082,7.186-0.082c3.555,0,7.188,0.136,7.736,0.027c0.846,0,1.119-0.574,1.064-0.983
		c0.082-0.793-0.656-1.066-1.094-1.257c-2.268-0.957-4.891-1.586-4.973-8.309l0.027-19.703c0.137-1.967,0.545-3.415,3.826-4.071
		c1.285-0.52,1.584-0.983,1.531-1.339c-0.057-0.547-0.191-0.902-0.82-0.793c-0.521-0.054-2.65,0.137-4.92,0.191
		c-2.076-0.027-3.99-0.082-5.328-0.191c-1.969,0-2.678,1.804-3.006,2.516l-9.484,20.904L125.595,1.53
		c-0.409-1.093-1.01-1.039-2.022-1.121C122.617,0.409,118.081,0.874,114.036,0.464"/>
	<path fill="#FFFFFF" d="M1.038,0.301C0.847,0.191,0.137,0.409,0,1.12c0,0.574,0.355,0.984,1.065,1.202
		c1.367,0.409,1.776,0.382,2.159,0.602c0.52,0.3,1.777,0.765,1.969,5.355c0.136,5.438-0.055,12.544-0.11,18.991
		c-0.027,6.123-0.765,6.15-1.913,6.97c-1.53,0.603-2.241,1.011-2.213,1.722c0,0.52,0.383,1.039,1.94,1.039
		c4.81-0.055,8.799-0.137,12.68-0.137c3.635,0,7.105,0.055,10.958,0.191c1.994,0.245,1.914-0.547,1.914-1.257
		c-0.027-0.657-0.273-3.799,0.136-6.641c0-2.241-0.574-2.05-0.983-2.077c-0.547-0.082-1.148,0.272-1.148,1.42
		c-0.028,1.095,0.246,3.936-4.59,4.4c-2.979,0.327-4.701,0.438-6.204,0.383c-2.077,0-2.459-0.027-2.487-1.284
		c0-3.744,0.109-8.825,0.191-11.067c0.055-1.722,1.585-1.613,3.035-1.695c1.639-0.055,4.974-0.08,5.929,3.39
		c0.438,1.804,0.792,1.774,1.366,1.694c0.629-0.109,0.903-0.465,0.82-1.804c-0.082-1.284-0.354-6.94,0.083-9.647
		c0.108-1.311-0.055-1.639-0.629-1.803c-0.602-0.109-1.231,0.246-1.559,1.475c-0.382,0.685-1.284,2.897-5.055,3.089
		c-3.825,0.163-4.072-0.054-3.99-2.323c-0.026-2.322,0-7.459,0-7.486c-0.054-0.411-0.026-2.05,1.75-1.914
		c2.295-0.027,6.339,0.11,7.35,0.327c1.039,0.247,3.799,0.521,4.126,4.701c0.164,1.147,0.766,1.12,1.093,1.147
		c0.437,0.027,0.957-0.219,0.82-1.338c-0.165-1.094-0.082-5.275,0.137-6.75c0.055-1.558-0.71-1.531-1.695-1.586
		c-0.627,0-8.035,0.273-13.472,0.41C10.302,0.956,1.038,0.301,1.038,0.301"/>
	<path fill="#FFFFFF" d="M110.511,35.005c-0.819-0.354-2.268,0.137-4.208-3.854L92.284,0.71c-0.328-0.711-1.066-0.792-1.366,0
		l-1.612,3.197L75.286,32.081c0,0-0.929,2.214-2.732,2.842c0,0.027-1.366,0.494-1.339,1.285c0,0.602,0.574,0.875,1.284,0.82
		c4.045-0.136,6.421-0.191,10.521,0.055c0.766,0.026,1.175-0.355,1.257-0.848c0.082-0.547-0.219-1.23-1.011-1.531
		c-1.502-0.654-2.923-0.382-2.624-2.131c0.274-1.721,1.368-4.755,2.104-5.93c0.574-0.984,0.957-0.875,1.613-0.875h4.946l0,0h4.783
		c0.792,0.083,1.038,0.166,1.475,0.93c0.383,0.655,1.531,2.433,2.131,4.617c0.574,2.134-0.519,3.281-1.694,3.718
		c-0.792,0.301-1.694,0.218-1.694,1.311c0.028,0.466,0.465,0.657,1.039,0.685c1.448-0.082,4.563-0.109,7.789-0.164
		c2.706,0.055,4.591,0.027,7.132,0.191c1.011-0.027,1.203-0.491,1.229-0.847C111.55,35.524,111.167,35.196,110.511,35.005z
		 M92.611,21.834c-1.311,0.027-2.323,0.027-3.306,0.027V21.86c-1.038,0-2.077-0.027-3.47-0.027c-0.519-0.082-1.175,0.11-0.793-1.093
		l4.215-8.481l4.065,8.155C93.624,21.233,93.951,21.806,92.611,21.834z"/>
	<path fill="#FFFFFF" d="M33.64,0.438c0,0-1.612-0.137-1.694,0.655c0,0.492,0.055,0.902,0.929,1.202
		c2.542,1.23,3.852,2.597,4.426,3.526c1.914,2.104,9.729,13.688,9.729,13.662c0,0.026-10.082,11.095-10.082,11.068
		c0,0.026-2.953,2.897-5.794,4.262c-0.902,0.493-1.012,0.957-0.902,1.396c0.083,0.573,0.601,0.874,1.64,0.847
		c2.159,0.027,7.05-0.521,13.828,0c0.957,0,1.393-0.41,1.421-0.93c0.055-0.573-0.383-1.202-1.23-1.394
		c-1.94-0.327-5.028-1.504-2.35-5.001c2.678-3.471,5.847-6.941,5.847-6.969c0,0.027,3.689,5.467,5.603,8.309
		c1.174,1.775,0.519,3.441-1.449,3.853c-0.71,0.302-0.874,0.683-0.874,1.257c0,0.546,0.491,0.902,1.584,0.82
		c1.722,0.082,7.542-0.328,14.784,0c1.175,0,1.558-0.328,1.64-0.738c0.082-0.71-0.383-1.175-0.875-1.42
		c-1.064-0.63-2.322-0.493-5.301-4.564c-3.415-4.673-9.701-13.473-9.701-13.499c0,0.026,10.466-11.396,10.466-11.396
		c0.382-0.546,2.187-2.267,4.755-2.786c0.902-0.355,1.093-1.039,0.983-1.422c0.054-0.438-0.492-0.766-1.12-0.737
		c-2.078,0.218-4.427,0.409-6.559,0.464c-2.186-0.055-5.52-0.273-7.515-0.464c-0.791-0.028-1.202,0.354-1.229,0.847
		c-0.11,0.52,0.192,1.229,0.984,1.284c1.994,0.328,4.591,0.929,2.541,3.88c-2.131,2.898-5.793,6.778-5.793,6.75
		c0,0.028-5.465-7.979-5.465-8.006C46.593,4.7,45.773,3.116,47.96,2.597c1.147-0.302,1.476-0.63,1.366-1.285
		c0.082-0.711-0.575-0.848-1.421-0.874c-1.667-0.081-5.165,0.491-7.843,0.409C38.121,0.71,33.64,0.438,33.64,0.438"/>
</g>
</svg>
