<?xml version="1.0" encoding="utf-8"?>
<!-- Generator: Adobe Illustrator 18.1.1, SVG Export Plug-In . SVG Version: 6.00 Build 0)  -->
<svg version="1.1" id="Livello_1" xmlns="http://www.w3.org/2000/svg" xmlns:xlink="http://www.w3.org/1999/xlink" x="0px" y="0px"
	 viewBox="0 0 222 40" enable-background="new 0 0 222 40" xml:space="preserve">
<g>
	<path fill="#fff" d="M55.4,28.2c0.9,0,1.6-0.1,2-0.3c0.4-0.2,0.6-0.5,0.6-1.1c0-0.4-0.2-0.8-0.7-1.1c-0.5-0.3-1.3-0.7-2.3-1
		c-0.8-0.3-1.5-0.6-2.2-0.9c-0.6-0.3-1.2-0.7-1.6-1.1c-0.5-0.4-0.8-1-1.1-1.6c-0.2-0.6-0.4-1.3-0.4-2.2c0-1.7,0.6-3,1.9-4
		c1.2-1,3-1.5,5.1-1.5c1.1,0,2.1,0.1,3.1,0.3s1.8,0.4,2.4,0.6l-0.9,3.9c-0.6-0.2-1.2-0.4-1.9-0.5c-0.7-0.2-1.5-0.2-2.3-0.2
		c-1.6,0-2.4,0.4-2.4,1.3c0,0.2,0,0.4,0.1,0.5c0.1,0.2,0.2,0.3,0.4,0.5c0.2,0.1,0.5,0.3,0.8,0.5c0.4,0.2,0.8,0.4,1.3,0.6
		c1.1,0.4,2,0.8,2.8,1.2c0.7,0.4,1.3,0.8,1.7,1.3s0.7,1,0.9,1.5c0.2,0.6,0.3,1.2,0.3,2c0,1.8-0.7,3.1-2,4s-3.2,1.4-5.6,1.4
		c-1.6,0-2.9-0.1-4-0.4c-1.1-0.3-1.8-0.5-2.2-0.7l0.8-4.1c0.9,0.3,1.7,0.6,2.7,0.8C53.6,28.1,54.5,28.2,55.4,28.2z"/>
	<path fill="#fff" d="M75.9,22.3c0-1.6-0.2-2.8-0.6-3.5s-1.1-1-2.2-1c-0.3,0-0.6,0-1,0.1c-0.3,0-0.7,0.1-1,0.1v13.8H66V14.5
		c0.4-0.1,0.9-0.2,1.5-0.4s1.2-0.2,1.8-0.3c0.6-0.1,1.3-0.2,2-0.2c0.7-0.1,1.3-0.1,2-0.1c1.3,0,2.3,0.2,3.1,0.5
		c0.8,0.3,1.5,0.7,2,1.2c0.7-0.5,1.6-0.9,2.5-1.2s1.8-0.4,2.6-0.4c1.4,0,2.6,0.2,3.5,0.6s1.6,1,2.2,1.7c0.5,0.7,0.9,1.6,1.1,2.6
		s0.3,2.1,0.3,3.3v10.1h-5.1v-9.5c0-1.6-0.2-2.8-0.6-3.5s-1.1-1-2.2-1c-0.3,0-0.7,0.1-1.1,0.2c-0.5,0.1-0.9,0.3-1.2,0.5
		c0.2,0.5,0.3,1.1,0.3,1.6c0,0.6,0.1,1.2,0.1,1.9v9.8h-5.1v-9.6H75.9z"/>
	<path fill="#fff" d="M101.1,13.4c1.5,0,2.7,0.2,3.7,0.5s1.8,0.8,2.4,1.5c0.6,0.6,1,1.4,1.3,2.3c0.2,0.9,0.4,1.9,0.4,3v10.5
		c-0.7,0.2-1.7,0.3-3,0.6c-1.3,0.2-2.9,0.3-4.7,0.3c-1.2,0-2.2-0.1-3.1-0.3s-1.8-0.5-2.4-1c-0.7-0.5-1.2-1.1-1.6-1.8
		c-0.4-0.7-0.5-1.7-0.5-2.8c0-1,0.2-1.9,0.6-2.7c0.4-0.7,1-1.3,1.7-1.7c0.7-0.4,1.5-0.7,2.4-0.9c0.9-0.2,1.8-0.3,2.8-0.3
		c0.7,0,1.2,0,1.8,0.1c0.5,0.1,0.9,0.1,1.2,0.2v-0.5c0-0.9-0.3-1.6-0.8-2.1s-1.4-0.8-2.7-0.8c-0.9,0-1.7,0.1-2.5,0.2
		s-1.6,0.3-2.2,0.5l-0.6-4.1c0.3-0.1,0.7-0.2,1.1-0.3s0.9-0.2,1.4-0.3s1.1-0.1,1.6-0.2C100,13.5,100.5,13.4,101.1,13.4z M101.5,28.3
		c0.5,0,1,0,1.4,0c0.5,0,0.8-0.1,1.1-0.1v-3.8c-0.2,0-0.5-0.1-0.9-0.1s-0.8-0.1-1.1-0.1c-0.5,0-0.9,0-1.3,0.1s-0.8,0.2-1.1,0.3
		c-0.3,0.2-0.6,0.4-0.7,0.6c-0.2,0.3-0.3,0.6-0.3,1c0,0.8,0.3,1.3,0.8,1.6S100.6,28.3,101.5,28.3z"/>
	<path fill="#fff" d="M123.6,18.4c-0.5-0.1-1-0.2-1.6-0.4c-0.6-0.1-1.3-0.2-2-0.2c-0.3,0-0.7,0-1.1,0.1s-0.8,0.1-1,0.2v13.7h-5.1
		V14.9c0.9-0.3,2-0.6,3.2-0.9c1.2-0.3,2.6-0.4,4.1-0.4c0.3,0,0.6,0,1,0.1s0.8,0.1,1.2,0.1c0.4,0.1,0.8,0.1,1.2,0.2
		c0.4,0.1,0.7,0.2,1,0.3L123.6,18.4z"/>
	<path fill="#fff" d="M126.3,9.5l5.1-0.8V14h6.1v4.2h-6.1v6.3c0,1.1,0.2,1.9,0.6,2.5c0.4,0.6,1.1,1,2.3,1c0.5,0,1.1-0.1,1.7-0.2
		c0.6-0.1,1.1-0.2,1.6-0.4l0.7,3.9c-0.6,0.2-1.3,0.5-2,0.6c-0.7,0.2-1.7,0.3-2.8,0.3c-1.4,0-2.5-0.2-3.4-0.6s-1.6-0.9-2.2-1.6
		c-0.5-0.7-0.9-1.5-1.1-2.4s-0.3-2-0.3-3.2V9.5H126.3z"/>
</g>
<g>
	<path fill="#fff" d="M151.9,14.2c0.2,1.1,0.5,2.3,0.8,3.6s0.7,2.6,1.1,3.9c0.4,1.3,0.8,2.6,1.3,3.9c0.4,1.3,0.9,2.5,1.3,3.6
		c0.4-0.9,0.8-1.9,1.2-3.1s0.9-2.5,1.3-3.9c0.4-1.4,0.8-2.8,1.2-4.1s0.7-2.7,0.9-3.9h2.2c-0.8,3.5-1.7,6.6-2.7,9.5s-2,5.6-3.2,8.1
		h-2c-0.3-0.8-0.7-1.7-1.1-2.7c-0.4-1-0.8-2-1.2-3.2s-0.8-2.3-1.2-3.5s-0.7-2.5-1.1-3.8c-0.3,1.3-0.7,2.6-1.1,3.8
		c-0.4,1.2-0.8,2.4-1.2,3.5s-0.8,2.2-1.2,3.2s-0.7,1.9-1.1,2.7H144c-1.2-2.6-2.2-5.3-3.2-8.1c-1-2.9-1.9-6-2.7-9.5h2.3
		c0.2,1.2,0.6,2.5,0.9,3.9s0.8,2.8,1.2,4.1c0.4,1.4,0.9,2.7,1.3,3.9c0.4,1.2,0.9,2.3,1.2,3.1c0.4-1.1,0.9-2.3,1.3-3.6
		c0.4-1.3,0.8-2.6,1.2-3.9s0.7-2.6,1.1-3.9s0.6-2.5,0.9-3.6C149.5,14.2,151.9,14.2,151.9,14.2z"/>
	<path fill="#fff" d="M181.2,23c0,1.4-0.2,2.6-0.6,3.8c-0.4,1.1-1,2.1-1.7,2.9s-1.6,1.4-2.5,1.9c-1,0.4-2.1,0.7-3.2,0.7
		s-2.3-0.2-3.2-0.7c-1-0.4-1.8-1.1-2.5-1.9s-1.3-1.8-1.7-2.9s-0.6-2.4-0.6-3.8s0.2-2.6,0.6-3.8c0.4-1.1,1-2.1,1.7-2.9
		c0.7-0.8,1.6-1.4,2.5-1.9c1-0.4,2.1-0.7,3.2-0.7s2.3,0.2,3.2,0.7c1,0.4,1.8,1.1,2.5,1.9s1.3,1.8,1.7,2.9
		C181,20.4,181.2,21.6,181.2,23z M178.8,23c0-2.2-0.5-3.9-1.5-5.3c-1-1.3-2.4-2-4.1-2s-3.1,0.7-4.1,2s-1.5,3.1-1.5,5.3
		s0.5,3.9,1.5,5.2c1,1.3,2.4,1.9,4.1,1.9s3.1-0.6,4.1-1.9C178.3,27,178.8,25.2,178.8,23z"/>
	<path fill="#fff" d="M191.3,13.9c0.7,0,1.4,0.1,2.1,0.2c0.6,0.1,1.1,0.2,1.3,0.3l-0.4,1.9c-0.2-0.1-0.6-0.2-1.1-0.3
		c-0.6-0.1-1.3-0.2-2.2-0.2c-1,0-1.7,0.1-2.3,0.2c-0.6,0.1-1,0.2-1.1,0.3v15.4h-2.2V15c0.6-0.2,1.3-0.5,2.3-0.8
		C188.6,14,189.9,13.9,191.3,13.9z"/>
	<path fill="#fff" d="M201.8,32.1c-0.7,0-1.4-0.1-2-0.3c-0.6-0.2-1-0.4-1.4-0.8s-0.7-0.8-0.8-1.4c-0.2-0.6-0.3-1.3-0.3-2.1V5.8
		l2.2-0.4v22.1c0,0.5,0.1,1,0.2,1.3c0.1,0.3,0.3,0.6,0.5,0.8s0.5,0.3,0.8,0.4s0.7,0.2,1.2,0.2L201.8,32.1z"/>
	<path fill="#fff" d="M219.3,31.3c-0.7,0.2-1.5,0.4-2.5,0.6c-1,0.2-2.3,0.3-3.9,0.3c-1.3,0-2.5-0.2-3.5-0.6c-1.1-0.4-2-1-2.7-1.8
		c-0.8-0.8-1.3-1.8-1.8-2.9c-0.4-1.1-0.6-2.4-0.6-3.8c0-1.3,0.2-2.6,0.5-3.7s0.9-2.1,1.5-2.9c0.7-0.8,1.5-1.5,2.5-1.9
		c1-0.5,2.1-0.7,3.4-0.7c1.2,0,2.2,0.2,3,0.5s1.5,0.6,1.9,0.9V5.8l2.2-0.4L219.3,31.3L219.3,31.3z M217.1,17.4
		c-0.2-0.2-0.5-0.3-0.8-0.5s-0.7-0.4-1.1-0.5s-0.8-0.3-1.3-0.4s-1-0.2-1.5-0.2c-1.1,0-2,0.2-2.7,0.6s-1.3,0.9-1.8,1.5
		s-0.8,1.4-1,2.3s-0.3,1.8-0.3,2.8c0,2.3,0.6,4.1,1.7,5.3c1.2,1.2,2.7,1.9,4.6,1.9c1.1,0,2-0.1,2.6-0.2c0.7-0.1,1.2-0.2,1.5-0.3
		V17.4H217.1z"/>
</g>
<g id="Layer_2">
	<g>
		<path fill="none" d="M6,19.6c-0.1,0.3-0.3,0.6-0.4,1c0.4-1.1,0.9-2.1,1.5-3c-0.3,0.4-0.5,0.9-0.7,1.4L6,19.6z"/>
		<path fill="#fff" d="M18.9,0C18.9,0,18.9,0,18.9,0c0,0,0.1,0,0.1,0C19,0,18.9,0,18.9,0z"/>
		<path opacity="0" fill="#fff" d="M18.9,0C18.9,0,18.9,0,18.9,0c0,0,0.1,0,0.1,0C19,0,18.9,0,18.9,0z"/>
		<path fill="#fff" d="M11.8,1.7C11.8,1.7,11.8,1.7,11.8,1.7C11.8,1.7,11.8,1.7,11.8,1.7C11.8,1.7,11.8,1.7,11.8,1.7z"/>
		<path opacity="0" fill="#fff" d="M11.8,1.7C11.8,1.7,11.8,1.7,11.8,1.7C11.8,1.7,11.8,1.7,11.8,1.7C11.8,1.7,11.8,1.7,11.8,1.7
			z"/>
		<path fill="#fff" d="M7.1,35.1C7.1,35.1,7.1,35,7.1,35.1c-0.2-0.3-0.4-0.5-0.6-0.7c0,0-0.1-0.1-0.1-0.1
			c-0.1-0.2-0.3-0.4-0.4-0.6c0-0.1-0.1-0.1-0.1-0.2c-0.1-0.2-0.2-0.4-0.3-0.6c0-0.1-0.1-0.2-0.1-0.3c0-0.1-0.1-0.2-0.1-0.3
			c0-0.1-0.1-0.2-0.1-0.3c0,0,0,0,0-0.1c-1.5-3.6-1.1-7.6,0.2-11.1c0,0,0,0,0,0c0-0.1,0.1-0.2,0.1-0.4c0.1-0.3,0.3-0.6,0.4-1
			l0.3-0.7c0.2-0.5,0.5-0.9,0.7-1.4c1.3-2.2,2.9-4.1,4.3-5.2c0,0,0,0,0,0c0,0,0,0,0,0c0.8-0.6,1.6-1.2,2.4-1.8
			c0.5-0.3,1.2-0.6,1.7-0.8c2.1-1.1,4-1.7,7-1.9l0,0c0,0,0,0,0,0c-1.2-1-2.5-1.4-3.8-1.8L18,5.8c-3.7-0.9-7.5-0.4-10.6,0.9
			C5.2,7.6,3.2,9.2,2,11.4c0,0,0,0,0,0.1c1-2.2,2.5-4.2,4.4-6C8,3.9,9.8,2.7,11.7,1.8c0,0,0,0,0,0c0,0,0.1,0,0.1,0c0,0-0.1,0-0.1,0
			c0,0,0,0,0,0C10.8,2.2,9.9,2.7,9,3.3c0,0,0,0,0,0C-0.2,9.4-2.8,21.8,3.3,31c1.4,2.1,3,3.8,4.9,5.1C8.1,36.1,8,36,7.9,35.9
			C7.6,35.6,7.4,35.4,7.1,35.1z"/>
		<path fill="#fff" d="M5.5,32.4c0,0,0-0.1-0.1-0.1c0,0.1,0.1,0.2,0.1,0.3C5.5,32.6,5.5,32.5,5.5,32.4z"/>
		<path opacity="0" fill="#fff" d="M5.5,32.4c0,0,0-0.1-0.1-0.1c0,0.1,0.1,0.2,0.1,0.3C5.5,32.6,5.5,32.5,5.5,32.4z"/>
		<path fill="#fff" d="M11.7,1.8C11.8,1.8,11.8,1.8,11.7,1.8C11.8,1.7,11.8,1.7,11.7,1.8C11.8,1.8,11.7,1.8,11.7,1.8
			C11.7,1.8,11.7,1.8,11.7,1.8z"/>
		<path opacity="0" fill="#fff" d="M11.7,1.8C11.8,1.8,11.8,1.8,11.7,1.8C11.8,1.7,11.8,1.7,11.7,1.8C11.8,1.8,11.7,1.8,11.7,1.8
			C11.7,1.8,11.7,1.8,11.7,1.8z"/>
		<path opacity="0" fill="#fff" d="M11.7,1.8C11.8,1.8,11.8,1.8,11.7,1.8C11.8,1.7,11.8,1.7,11.7,1.8C11.8,1.8,11.7,1.8,11.7,1.8
			C11.7,1.8,11.7,1.8,11.7,1.8z"/>
		<path opacity="0" fill="#fff" d="M11.7,1.8C11.8,1.8,11.8,1.8,11.7,1.8C11.8,1.7,11.8,1.7,11.7,1.8C11.8,1.8,11.7,1.8,11.7,1.8
			C11.7,1.8,11.7,1.8,11.7,1.8z"/>
		<path opacity="0" fill="#fff" d="M24.5,0.5c-0.1,0-0.3-0.1-0.4-0.1C24.2,0.4,24.3,0.4,24.5,0.5C24.5,0.5,24.5,0.5,24.5,0.5z"/>
		<path opacity="0" fill="#fff" d="M25.4,0.7c-0.1,0-0.2-0.1-0.4-0.1C25.1,0.6,25.2,0.6,25.4,0.7C25.3,0.7,25.4,0.7,25.4,0.7z"/>
		<path fill="#fff" d="M28.2,12.3c0.4,0.4,0.7,0.9,1.1,1.4c0.6,0.8,1.1,1.7,1.6,2.7c-0.5-2.8-1.6-5.3-3.1-7.6l-0.4-0.6
			c0,0,0,0,0,0c-1.7-0.3-3.3-0.3-4.9-0.2C24.7,9,26.6,10.4,28.2,12.3z"/>
		<path fill="#fff" d="M27.4,8.1C25.2,5,22.2,2.7,19,1.7c-2.3-0.7-4.8-0.8-7.2,0.1c0,0-0.1,0-0.1,0C9.8,2.7,8,3.9,6.3,5.4
			C4.4,7.2,3,9.2,2,11.4c0,0,0,0,0-0.1c1.3-2.2,3.2-3.8,5.5-4.7c3.1-1.3,6.9-1.4,10.6-0.5l0.8,0.2c1.3,0.4,2.5,0.9,3.8,1.5
			C24.1,7.8,25.7,7.8,27.4,8.1z"/>
		<path fill="#fff" d="M19,1.7c3.2,1,6.2,3.3,8.4,6.4c0,0,0,0,0,0c-3.8-5.3-10-8.3-15.5-6.4c0,0-0.1,0-0.1,0c0,0-0.1,0-0.1,0
			c0,0,0.1,0,0.1,0C14.2,0.9,16.6,0.9,19,1.7z"/>
		<path opacity="0" fill="#fff" d="M19,1.7c3.2,1,6.2,3.3,8.4,6.4c0,0,0,0,0,0c-3.8-5.3-10-8.3-15.5-6.4c0,0-0.1,0-0.1,0
			c0,0-0.1,0-0.1,0c0,0,0.1,0,0.1,0C14.2,0.9,16.6,0.9,19,1.7z"/>
		<path opacity="0" fill="#fff" d="M19,1.7c3.2,1,6.2,3.3,8.4,6.4c0,0,0,0,0,0c-3.8-5.3-10-8.3-15.5-6.4c0,0-0.1,0-0.1,0
			c0,0-0.1,0-0.1,0c0,0,0.1,0,0.1,0C14.2,0.9,16.6,0.9,19,1.7z"/>
		<path opacity="0" fill="#fff" d="M19,1.7c3.2,1,6.2,3.3,8.4,6.4c0,0,0,0,0,0c-3.8-5.3-10-8.3-15.5-6.4c0,0-0.1,0-0.1,0
			c0,0-0.1,0-0.1,0c0,0,0.1,0,0.1,0C14.2,0.9,16.6,0.9,19,1.7z"/>
		<path opacity="0" fill="#fff" d="M19,1.7c3.2,1,6.2,3.3,8.4,6.4c0,0,0,0,0,0c-3.8-5.3-10-8.3-15.5-6.4c0,0-0.1,0-0.1,0
			c0,0-0.1,0-0.1,0c0,0,0.1,0,0.1,0C14.2,0.9,16.6,0.9,19,1.7z"/>
		<g>
			<path fill="none" d="M27.4,8.2c-0.2-0.3-0.4-0.6-0.6-0.8c0.7,0.9,1.3,1.8,1.9,2.8c-0.3-0.5-0.5-0.9-0.8-1.3L27.4,8.2z"/>
			<path fill="#fff" d="M40,22.2C40,22.2,40,22.2,40,22.2C40,22.2,40,22.2,40,22.2C40,22.2,40,22.2,40,22.2z"/>
			<path opacity="0" fill="#fff" d="M40,22.2C40,22.2,40,22.2,40,22.2C40,22.2,40,22.2,40,22.2C40,22.2,40,22.2,40,22.2z"/>
			<path fill="#fff" d="M13.4,1.4C13.5,1.4,13.5,1.4,13.4,1.4c0.4-0.1,0.6-0.1,0.9-0.1c0,0,0.1,0,0.1,0c0.2,0,0.5,0,0.7,0
				c0.1,0,0.1,0,0.2,0c0.2,0,0.4,0,0.7,0c0.1,0,0.2,0,0.3,0c0.1,0,0.2,0,0.3,0c0.1,0,0.2,0,0.3,0c0,0,0,0,0.1,0
				c3.9,0.5,7.1,2.8,9.5,5.7c0,0,0,0,0,0c0.1,0.1,0.2,0.2,0.2,0.3c0.2,0.3,0.4,0.5,0.6,0.8l0.4,0.6c0.3,0.4,0.6,0.9,0.8,1.3
				c1.3,2.2,2.1,4.5,2.3,6.3c0,0,0,0,0,0c0,0,0,0,0,0c0.2,1,0.3,2,0.3,3c0,0.6,0,1.2,0,1.7c-0.2,2.4-0.8,4.8-1.9,7.2c0,0,0,0,0,0
				c0,0,0,0,0,0c1.2-0.7,2.2-1.6,3.2-2.5l0.6-0.5c2.6-2.7,4.4-6.1,4.8-9.4c0.3-2.5-0.1-4.9-1.3-7.1c0,0,0,0,0-0.1
				c1.4,2,2.4,4.3,3,6.8c0.5,2.2,0.7,4.4,0.4,6.5c0,0,0,0,0,0c0,0,0,0.1,0,0.1c0,0,0-0.1,0-0.1c0,0,0,0,0,0c0-1,0.1-2,0-3
				c0,0,0,0,0,0C39.4,7.9,29.9-0.5,18.8,0.1c-2.5,0.1-4.8,0.7-6.9,1.7c0.1,0,0.3-0.1,0.4-0.1C12.7,1.6,13.1,1.5,13.4,1.4z"/>
			<path fill="#fff" d="M16.5,1.3c0,0,0.1,0,0.1,0c-0.1,0-0.2,0-0.3,0C16.4,1.3,16.5,1.3,16.5,1.3z"/>
			<path opacity="0" fill="#fff" d="M16.5,1.3c0,0,0.1,0,0.1,0c-0.1,0-0.2,0-0.3,0C16.4,1.3,16.5,1.3,16.5,1.3z"/>
			<path fill="#fff" d="M40,22.1C40,22.1,40,22.1,40,22.1C40,22.2,40,22.2,40,22.1C40,22.1,40,22.1,40,22.1
				C40,22.1,40,22.1,40,22.1z"/>
			<path opacity="0" fill="#fff" d="M40,22.1C40,22.1,40,22.1,40,22.1C40,22.2,40,22.2,40,22.1C40,22.1,40,22.1,40,22.1
				C40,22.1,40,22.1,40,22.1z"/>
			<path opacity="0" fill="#fff" d="M40,22.1C40,22.1,40,22.1,40,22.1C40,22.2,40,22.2,40,22.1C40,22.1,40,22.1,40,22.1
				C40,22.1,40,22.1,40,22.1z"/>
			<path opacity="0" fill="#fff" d="M40,22.1C40,22.1,40,22.1,40,22.1C40,22.2,40,22.2,40,22.1C40,22.1,40,22.1,40,22.1
				C40,22.1,40,22.1,40,22.1z"/>
			<path fill="#fff" d="M22.6,31.1c-0.6,0.1-1.1,0.2-1.7,0.3c-1,0.1-2.1,0.1-3.1,0.1c2.6,0.9,5.4,1,8.1,0.9l1-0.1
				c0.2,0.3,0,0,0,0c1.1-1,1.8-2.5,2.5-3.9C27.3,29.7,25,30.6,22.6,31.1z"/>
			<path fill="#fff" d="M26.7,32.5c3.8-0.4,7.3-1.8,9.8-4.1c1.8-1.7,3.1-3.8,3.5-6.2c0,0,0-0.1,0-0.1c0.2-2.1,0.1-4.3-0.4-6.5
				c-0.6-2.5-1.6-4.8-3-6.8c0,0,0,0,0,0.1c1.3,2.2,1.7,4.6,1.3,7.1c-0.4,3.3-2.2,6.7-4.8,9.4l-0.6,0.5c-1,0.9-2,1.8-3.2,2.5
				C28.6,29.8,27.7,31.2,26.7,32.5z"/>
			<path fill="#fff" d="M36.4,28.4c-2.5,2.3-6,3.7-9.8,4.1c0,0,0,0,0,0c6.5-0.7,12.2-4.5,13.3-10.2c0,0,0-0.1,0-0.1
				c0,0,0-0.1,0-0.1c0,0,0,0.1,0,0.1C39.5,24.6,38.2,26.7,36.4,28.4z"/>
			<path opacity="0" fill="#fff" d="M36.4,28.4c-2.5,2.3-6,3.7-9.8,4.1c0,0,0,0,0,0c6.5-0.7,12.2-4.5,13.3-10.2c0,0,0-0.1,0-0.1
				c0,0,0-0.1,0-0.1c0,0,0,0.1,0,0.1C39.5,24.6,38.2,26.7,36.4,28.4z"/>
			<path opacity="0" fill="#fff" d="M36.4,28.4c-2.5,2.3-6,3.7-9.8,4.1c0,0,0,0,0,0c6.5-0.7,12.2-4.5,13.3-10.2c0,0,0-0.1,0-0.1
				c0,0,0-0.1,0-0.1c0,0,0,0.1,0,0.1C39.5,24.6,38.2,26.7,36.4,28.4z"/>
			<path opacity="0" fill="#fff" d="M36.4,28.4c-2.5,2.3-6,3.7-9.8,4.1c0,0,0,0,0,0c6.5-0.7,12.2-4.5,13.3-10.2c0,0,0-0.1,0-0.1
				c0,0,0-0.1,0-0.1c0,0,0,0.1,0,0.1C39.5,24.6,38.2,26.7,36.4,28.4z"/>
			<path opacity="0" fill="#fff" d="M36.4,28.4c-2.5,2.3-6,3.7-9.8,4.1c0,0,0,0,0,0c6.5-0.7,12.2-4.5,13.3-10.2c0,0,0-0.1,0-0.1
				c0,0,0-0.1,0-0.1c0,0,0,0.1,0,0.1C39.5,24.6,38.2,26.7,36.4,28.4z"/>
		</g>
		<g>
			<path fill="none" d="M26.7,32.3c0.3,0,0.7-0.1,1-0.1c-1.1,0.2-2.3,0.2-3.3,0.2c0.5,0,1,0,1.5,0L26.7,32.3z"/>
			<path fill="#fff" d="M9.3,16.7c0.2-0.5,0.4-1.1,0.6-1.6c0.4-0.9,0.9-1.8,1.5-2.7c0,0,0,0,0,0c0,0,0,0,0,0
				c-0.6,0.9-1.1,1.8-1.5,2.7C9.6,15.6,9.4,16.2,9.3,16.7c-0.8,2.4-1.1,4.8-1,7.1c0,0,0,0,0,0c0,0,0,0,0,0
				C8.2,21.5,8.5,19.1,9.3,16.7z"/>
			<path fill="#fff" d="M8.3,36.2C8.3,36.2,8.3,36.2,8.3,36.2C8.3,36.2,8.3,36.2,8.3,36.2C8.3,36.2,8.3,36.2,8.3,36.2z"/>
			<path opacity="0" fill="#fff" d="M8.3,36.2C8.3,36.2,8.3,36.2,8.3,36.2C8.3,36.2,8.3,36.2,8.3,36.2
				C8.3,36.2,8.3,36.2,8.3,36.2z"/>
			<path fill="#fff" d="M39.6,23.6C39.5,23.6,39.5,23.7,39.6,23.6c-0.1,0.3-0.2,0.6-0.3,0.9c0,0,0,0.1-0.1,0.1
				c-0.1,0.2-0.2,0.4-0.3,0.6c0,0.1-0.1,0.1-0.1,0.2c-0.1,0.2-0.2,0.4-0.3,0.6c-0.1,0.1-0.1,0.2-0.2,0.3c-0.1,0.1-0.1,0.2-0.2,0.2
				c-0.1,0.1-0.1,0.2-0.2,0.2c0,0,0,0,0,0c-2.4,3.1-6,4.7-9.7,5.3c0,0,0,0,0,0c-0.1,0-0.2,0-0.4,0.1c-0.3,0.1-0.7,0.1-1,0.1
				l-0.8,0.1c-0.5,0-1,0-1.5,0c-2.6,0-5-0.5-6.7-1.2c0,0,0,0,0,0c0,0,0,0,0,0c-0.9-0.3-1.8-0.7-2.7-1.2c-0.5-0.3-1-0.6-1.5-0.9
				c-2-1.3-3.8-3.1-5.2-5.2c0,0,0,0,0,0c0,0,0,0,0,0c0.1,1.4,0.3,2.7,0.6,4L9,28.6c1,3.7,3.1,6.9,5.7,8.9c2,1.5,4.3,2.4,6.8,2.4
				c0,0,0,0,0.1,0c-2.4,0.2-4.9,0-7.4-0.8c-2.2-0.6-4.1-1.6-5.9-2.9c0,0,0,0,0,0c0,0-0.1,0-0.1-0.1c0,0,0.1,0.1,0.1,0.1c0,0,0,0,0,0
				c0.8,0.6,1.7,1.1,2.6,1.6c0,0,0,0,0,0c9.9,5,21.9,1,26.9-8.9c1.1-2.2,1.8-4.5,2-6.8c0,0.1-0.1,0.3-0.1,0.4
				C39.8,22.9,39.7,23.3,39.6,23.6z"/>
			<path fill="#fff" d="M38.1,26.4c0,0,0,0.1-0.1,0.1c0.1-0.1,0.1-0.2,0.2-0.2C38.2,26.3,38.1,26.3,38.1,26.4z"/>
			<path opacity="0" fill="#fff" d="M38.1,26.4c0,0,0,0.1-0.1,0.1c0.1-0.1,0.1-0.2,0.2-0.2C38.2,26.3,38.1,26.3,38.1,26.4z"/>
			<path fill="#fff" d="M8.4,36.3C8.4,36.2,8.4,36.2,8.4,36.3C8.3,36.2,8.3,36.2,8.4,36.3C8.4,36.2,8.4,36.3,8.4,36.3
				C8.4,36.3,8.4,36.3,8.4,36.3z"/>
			<path opacity="0" fill="#fff" d="M8.4,36.3C8.4,36.2,8.4,36.2,8.4,36.3C8.3,36.2,8.3,36.2,8.4,36.3
				C8.4,36.2,8.4,36.3,8.4,36.3C8.4,36.3,8.4,36.3,8.4,36.3z"/>
			<path opacity="0" fill="#fff" d="M8.4,36.3C8.4,36.2,8.4,36.2,8.4,36.3C8.3,36.2,8.3,36.2,8.4,36.3
				C8.4,36.2,8.4,36.3,8.4,36.3C8.4,36.3,8.4,36.3,8.4,36.3z"/>
			<path opacity="0" fill="#fff" d="M8.4,36.3C8.4,36.2,8.4,36.2,8.4,36.3C8.3,36.2,8.3,36.2,8.4,36.3
				C8.4,36.2,8.4,36.3,8.4,36.3C8.4,36.3,8.4,36.3,8.4,36.3z"/>
			<path fill="#fff" d="M9.3,16.7c0.2-0.5,0.4-1.1,0.6-1.6c0.4-0.9,0.9-1.9,1.5-2.7c-2.1,1.8-3.8,4.1-5,6.5L6,19.5c0,0,0,0,0,0
				c0.6,1.6,1.4,3,2.2,4.3C8.2,21.5,8.5,19.1,9.3,16.7z"/>
			<path fill="#fff" d="M6,19.5C4.5,23,4,26.7,4.7,30c0.5,2.4,1.7,4.6,3.6,6.2c0,0,0,0,0.1,0.1c1.7,1.2,3.7,2.2,5.9,2.9
				c2.5,0.7,4.9,1,7.4,0.8c0,0,0,0-0.1,0c-2.5,0-4.8-0.9-6.8-2.4c-2.7-2.1-4.7-5.2-5.7-8.9l-0.2-0.8c-0.3-1.3-0.5-2.6-0.6-4
				C7.4,22.6,6.7,21.1,6,19.5z"/>
			<path fill="#fff" d="M4.7,30C4,26.7,4.5,23,6,19.5c0,0,0,0,0,0c-2.7,6-2.2,12.8,2.2,16.6c0,0,0,0,0.1,0.1c0,0,0,0,0.1,0.1
				c0,0,0,0-0.1-0.1C6.4,34.6,5.2,32.4,4.7,30z"/>
			<path opacity="0" fill="#fff" d="M4.7,30C4,26.7,4.5,23,6,19.5c0,0,0,0,0,0c-2.7,6-2.2,12.8,2.2,16.6c0,0,0,0,0.1,0.1
				c0,0,0,0,0.1,0.1c0,0,0,0-0.1-0.1C6.4,34.6,5.2,32.4,4.7,30z"/>
			<path opacity="0" fill="#fff" d="M4.7,30C4,26.7,4.5,23,6,19.5c0,0,0,0,0,0c-2.7,6-2.2,12.8,2.2,16.6c0,0,0,0,0.1,0.1
				c0,0,0,0,0.1,0.1c0,0,0,0-0.1-0.1C6.4,34.6,5.2,32.4,4.7,30z"/>
			<path opacity="0" fill="#fff" d="M4.7,30C4,26.7,4.5,23,6,19.5c0,0,0,0,0,0c-2.7,6-2.2,12.8,2.2,16.6c0,0,0,0,0.1,0.1
				c0,0,0,0,0.1,0.1c0,0,0,0-0.1-0.1C6.4,34.6,5.2,32.4,4.7,30z"/>
			<path opacity="0" fill="#fff" d="M4.7,30C4,26.7,4.5,23,6,19.5c0,0,0,0,0,0c-2.7,6-2.2,12.8,2.2,16.6c0,0,0,0,0.1,0.1
				c0,0,0,0,0.1,0.1c0,0,0,0-0.1-0.1C6.4,34.6,5.2,32.4,4.7,30z"/>
		</g>
	</g>
</g>
</svg>
