<svg viewBox="-34 488 318.9 80" width="318.9" height="80" xmlns="http://www.w3.org/2000/svg">
	<path fill="#fff" d="M129.1 498.8h8v8h-8zM171.1 498.8h8v8h-8zM91.1 537.3c-2.9 3.5-7.6 5.4-12.3 5.4-8.9 0-15.7-6.2-15.7-15.6 0-8.4 5.7-15.7 14.6-15.7 8.3 0 14.2 7 14.2 15.3 0 .8-.1 1.6-.2 2.3H70.9c.5 4.2 3.8 7.1 8.1 7.1 3.4 0 6.1-1.9 7.6-3.5l4.5 4.7zm-7.5-14.1c-.3-2.7-2.7-5.3-5.9-5.3-3.3 0-6.1 2.5-6.4 5.3h12.3zM108.7 530.4l8.2-18.3h8.4L111.5 542H106l-13.8-29.9h8.3l8.2 18.3zM137.1 542.1h-8v-30h8v30zM145.6 532.9c2 1.8 5.2 2.9 8.2 2.9 2.2 0 3.8-1 3.8-2.5 0-4.5-14.6-2.9-14.6-12.5 0-5.7 5.5-9.3 11.5-9.3 3.9 0 8.2 1.5 10.1 3l-3.8 5.8c-1.6-1.1-3.6-2-5.7-2-2.2 0-4.1.8-4.1 2.4 0 3.9 14.6 2.3 14.6 12.7 0 5.7-5.6 9.3-11.9 9.3-4.1 0-8.5-1.4-12.1-4l4-5.8zM199.4 511.5c9.1 0 15.9 7 15.9 15.7s-6.9 15.5-15.9 15.5-15.9-6.9-15.9-15.6 6.8-15.6 15.9-15.6zm0 23.7c4.7 0 7.9-3.7 7.9-8.2s-3.2-8.2-7.9-8.2-7.9 3.7-7.9 8.2 3.2 8.2 7.9 8.2zM246.4 516.3c-2.5-2.9-6.3-4.8-10.4-4.8-3.3 0-6.2.8-8.5 2.7v-2h-7.7v29.9h8v-16.2-.3c0-3.7 3-6.8 6.8-6.8 2.2 0 4 1 5.3 2.5.5.5.8 1.2 1 2 .3.7.4 1.4.4 2.1 0 .4.1.8.1 1.2V542h8v-15.2c.1-5.1-1-8.1-3-10.5zM260.3 530.9c1.8 2.5 4.8 4.3 8 4.3 4.1 0 8.1-3.2 8.1-7.8 0-4.5-3.7-7.9-8.5-7.9-1.8 0-3.6.5-5.2 1.2v-5l8.1-9.6h-14.4v-7.4h26.3v5l-7.8 9.7c5.9 2.3 10 7.5 10 14 0 9.1-7.2 15.3-16.1 15.3-5.4 0-10.5-2.4-14.4-6.7l5.9-5.1zM179.2 542.1h-8v-30h8v30zM63.3 542.1l-11.7-16.2c4.6-2.4 7.6-7.2 7.6-12.7 0-7.9-6.4-14.3-14.3-14.3h-14v43.3h8v-14.7h3.9l10.5 14.6h10zM45 519.4h-6v-12.6h6c3.5 0 6.3 2.8 6.3 6.3-.1 3.5-2.9 6.3-6.3 6.3z"></path>
	<path fill="#fff" d="M-34 488v43.3H9.3V488H-34zm32.5 32.4h-21.7v-21.6h21.7v21.6z"></path>
	<path fill="#fff" d="M-23.2 498.8l10.9 10.9h10.8v-10.9"></path>
	<path fill="#fff" d="M-23.2 498.8v21.6h10.9v-10.7M20.1 498.8L9.3 488v43.3l10.8 10.8"></path>
	<path fill="#fff" d="M20.1 542.1L9.3 531.3H-34l10.8 10.8"></path>
	<g>
		<path fill="#fff" d="M112.2 556.5c2.2 0 4 1.8 4 4s-1.8 4-4 4-4-1.8-4-4c.1-2.2 1.9-4 4-4z"></path>
		<defs>
			<path id="a" d="M112.2 556.5c2.2 0 4 1.8 4 4s-1.8 4-4 4-4-1.8-4-4c.1-2.2 1.9-4 4-4z"></path>
		</defs>
		<clipPath id="b"></clipPath>
		<path fill="#fff" d="M106.5 564.5h-1.2l-1.1-2.5H99l-1.1 2.5h-1.1l4.4-9.7h1l4.3 9.7zm-4.9-8.4l-2.2 4.9h4.4l-2.2-4.9zM176.1 567.1l-.3.1v.7h-.1v-.7h-.3v-.1h.7zm.1 0h.1l.3.7.3-.7h.1v.8h-.1v-.6-.1l-.3.7h-.1l-.3-.7v.7-.8zM123.3 559.4c0 2.8-2.2 5-5.4 5h-3.1c.6-.4 1.1-1 1.5-1.6h1.6c2.1 0 3.5-1.4 3.5-3.4s-1.4-3.5-3.5-3.5h-2v1.5c-.3-.4-.7-.7-1-1-.3-.1-.5-.3-.7-.4v-1.6h3.7c3.2 0 5.4 2.2 5.4 5zm1 5.1h1.8v-7.6h-1.8v7.6zm8.1-3.7c-.2-.2-.5-.3-.8-.5-.3-.1-.5-.2-.8-.3-.2-.1-.5-.1-.7-.2s-.4-.1-.5-.2c-.1-.1-.3-.2-.4-.3-.1-.1-.1-.2-.1-.3 0-.2.1-.4.3-.5.2-.1.5-.2.8-.2.3 0 .7.1 1 .2s.7.3 1.1.5l.7-1.2c-.4-.3-.8-.5-1.3-.7-.5-.1-1-.2-1.4-.2-.4 0-.7.1-1 .1-.3.1-.6.3-.8.5-.3.2-.5.5-.6.7-.1.3-.2.6-.2 1s.1.7.2.9c.1.3.3.5.6.6.2.2.5.3.8.4.3.1.6.2.8.3.2.1.5.1.7.2.2.1.4.1.5.2.1.1.3.2.4.3.1.1.1.3.1.4 0 .3-.1.5-.3.6s-.5.2-.8.2c-.4 0-.8-.1-1.2-.3-.5-.1-.8-.4-1.2-.7l-.8 1.2c.5.4 1 .7 1.6.8.6.2 1.1.3 1.6.3.4 0 .8-.1 1.1-.1.3-.1.7-.3.9-.5s.5-.5.6-.7c.1-.3.2-.7.2-1 0-.3-.1-.7-.2-.8-.4-.4-.6-.6-.9-.7zm16.8-1.6c.2.5.3 1 .3 1.5s-.1 1-.3 1.5-.5.9-.8 1.2c-.4.4-.8.7-1.3.8-.5.2-1 .3-1.6.3s-1.1-.1-1.6-.3c-.5-.2-.9-.5-1.3-.8-.4-.4-.7-.8-.8-1.2-.2-.5-.3-1-.3-1.5s.1-1 .3-1.5c.2-.5.5-.9.8-1.2.3-.3.8-.7 1.3-.8.5-.2 1-.3 1.6-.3s1.1.1 1.6.3c.5.2.9.5 1.3.8.4.3.6.7.8 1.2zm-1.4 1.6c0-.3-.1-.7-.2-.9-.1-.3-.3-.6-.5-.8-.2-.2-.5-.4-.7-.5s-.6-.2-.9-.2c-.3 0-.7.1-.9.2s-.5.3-.7.5c-.2.2-.3.5-.5.8-.1.3-.1.6-.1.9 0 .3.1.7.2.9.1.3.3.6.5.8.2.2.5.4.7.5s.6.2.9.2c.3 0 .7-.1 1-.2.3-.1.5-.3.7-.5.2-.2.3-.5.5-.8-.1-.3 0-.6 0-.9zm5.7 1.7l-2-5.5h-1.9l3.1 7.6h1.6l3.1-7.6h-1.8l-2.1 5.5zm11.1-3.2c.1.5.3 1 .3 1.6v.6h-5.5c.1.7.3 1.1.7 1.4s.8.5 1.4.5c.5 0 .8-.1 1.1-.3.3-.1.7-.4.9-.7l1 .9c-.4.5-.8.8-1.3 1-.5.3-1.1.4-1.8.4-.5 0-1-.1-1.5-.3-.5-.2-.9-.5-1.2-.8-.3-.3-.7-.8-.8-1.2-.2-.5-.3-1-.3-1.6 0-.5.1-1 .3-1.5.2-.5.5-.9.8-1.2.3-.3.7-.7 1.2-.8.5-.2.9-.3 1.5-.3s1.1.1 1.6.3c.5.2.8.5 1.1.9.2.1.4.6.5 1.1zm-1.5.7c0-.3-.1-.4-.2-.6-.1-.3-.3-.5-.4-.7-.1-.2-.3-.3-.6-.5-.2-.1-.5-.1-.8-.1-.5 0-1 .2-1.3.5-.3.4-.6.7-.7 1.2l4 .2zm-25.1 3.2c-1.3 0-2.3-1.1-2.3-2.5 0-1.3.9-2.4 2.2-2.4.8 0 1.4.4 2 .9l1.1-1.2c-.7-.8-1.6-1.3-3.1-1.3-2.3 0-3.9 1.8-3.9 4s1.7 3.9 3.9 3.9c1.5 0 2.3-.6 3.1-1.4l-1-1c-.6.6-1.2 1-2 1zm29.9-5V557h-1.8v7.6h1.8v-2.9c0-.5.1-1 .2-1.3.5-1.4 2-1.8 2.7-1.9l-.6-1.4c-.6 0-1.7.3-2.3 1.1zm9-1.3l-2 5.5-1.8-5.5h-1.8l2.8 7.5v.1s-.6 1.5-1.1 1.9c-.4.2-1.3.2-1.7.2v1.4c.6 0 2 .1 2.5-.3.6-.4.7-.5 1.1-1.3.5-.8 3.8-9.5 3.8-9.5h-1.8z"></path>
		<g>
			<path fill="#fff" d="M185.9 564.7h-3.2v-9.3h3.2c2.9 0 5 2 5 4.6s-2.1 4.7-5 4.7zm0-8.3h-2.2v7.4h2.2c2.3 0 3.8-1.6 3.8-3.7 0-2.2-1.5-3.7-3.8-3.7zM193 556.3v-1.1h1.2v1.1H193zm.1 8.4v-6.9h1v6.9h-1zM199.6 566.8c-1.1 0-2.2-.3-3.1-1l.5-.8c.8.6 1.6.8 2.7.8 1.5 0 2.5-.8 2.5-2.4v-.8c-.6.8-1.4 1.4-2.7 1.4-1.6 0-3.2-1.2-3.2-3.2s1.6-3.3 3.2-3.3c1.3 0 2.2.7 2.7 1.4v-1.2h1v5.7c-.2 2.3-1.5 3.4-3.6 3.4zm0-8.2c-1.3 0-2.3.9-2.3 2.3s1.1 2.3 2.3 2.3c1.3 0 2.5-.9 2.5-2.3s-1.2-2.3-2.5-2.3zM205.5 556.3v-1.1h1.2v1.1h-1.2zm0 8.4v-6.9h1v6.9h-1zM210.4 562.7c0 .8.5 1.1 1.2 1.1.3 0 .7-.1 1-.3v.8c-.3.2-.7.3-1.2.3-1.1 0-2-.5-2-2v-4.1h-1v-.9h1v-2h1v2.1h2.2v.9h-2.2v4.1zM214.9 559.1l-.3-.8c.8-.3 1.5-.6 2.5-.6 1.9 0 2.9 1 2.9 2.7v4.2h-1v-1c-.5.7-1.2 1.2-2.5 1.2s-2.5-.7-2.5-2.2 1.2-2.2 2.9-2.2c.8 0 1.5.1 2.1.3v-.3c0-1.2-.8-1.9-2-1.9-.8.1-1.5.4-2.1.6zm.1 3.5c0 .8.8 1.4 1.7 1.4 1.2 0 2.3-.8 2.3-1.9v-.7c-.5-.1-1.2-.3-2-.3-1.3.1-2 .6-2 1.5zM222.4 564.7V555h1v9.7h-1zM236.5 555.4h1v9.3h-.8l-6-7.6v7.6h-1v-9.3h1l5.9 7.4v-7.4zM243 563.9c.9 0 1.6-.4 2.2-1l.7.6c-.7.8-1.5 1.3-2.8 1.3-1.9 0-3.4-1.4-3.4-3.6 0-2 1.4-3.6 3.3-3.6 2 0 3.2 1.6 3.2 3.7v.3h-5.4c0 1.5 1.1 2.3 2.2 2.3zm2.1-3c-.1-1.2-.8-2.3-2.2-2.3-1.2 0-2.1 1-2.2 2.3h4.4zM249.4 562.7c0 .8.5 1.1 1.2 1.1.3 0 .7-.1 1-.3v.8c-.4.2-.7.3-1.2.3-1.1 0-2-.5-2-2v-4.1h-1v-.9h1v-2h1v2.1h2.2v.9h-2.2v4.1zM260.3 563.4l1.8-5.5h1l-2.4 6.9h-.9l-1.8-5.4-1.8 5.4h-.9l-2.4-6.9h1.1l1.8 5.5 1.8-5.5h.8l1.9 5.5zM267.8 564.9c-2.1 0-3.6-1.6-3.6-3.6s1.5-3.6 3.6-3.6 3.6 1.6 3.6 3.6c0 1.9-1.5 3.6-3.6 3.6zm0-6.3c-1.5 0-2.5 1.2-2.5 2.7 0 1.5 1.1 2.7 2.5 2.7 1.5 0 2.5-1.2 2.5-2.7 0-1.5-1.1-2.7-2.5-2.7zM274.3 564.7h-1v-6.9h1v1.8c.5-1.2 1.5-2 2.8-1.9v1.1h-.1c-1.5 0-2.7 1.1-2.7 3.1v2.8zM284.9 564.7h-1.2l-2.5-3.2-1.4 1.4v1.8h-1V555h1v6.7l3.7-3.8h1.3l-2.9 2.9 3 3.9z"></path>
		</g>
	</g>
</svg>