<svg xmlns="http://www.w3.org/2000/svg" viewBox="0 0 284 26.01"><title>logo</title><path d="M12.46,0a12.5,12.5,0,1,0,6.21,23.35c2,1,3.07,1.38,5.49,2.65-.74-2.44-1-3.9-1.54-6.06a13.1,13.1,0,0,0,2.32-7.42A12.52,12.52,0,0,0,12.46,0Zm0,22.5a10,10,0,1,1,10-10A10,10,0,0,1,12.5,22.51Z" style="fill:#ffffff"/><circle cx="12.5" cy="12.42" r="3.1" style="fill:#ffffff"/><path d="M43.65,16.36a16.13,16.13,0,0,0-3.73-1.25,9.93,9.93,0,0,1-3.43-1.29,2.33,2.33,0,0,1-.94-2,2.56,2.56,0,0,1,1.13-2.16,4.94,4.94,0,0,1,3-.83,4.94,4.94,0,0,1,3.17,1,3.06,3.06,0,0,1,1.26,2.5H46a4.54,4.54,0,0,0-1.72-3.71A7,7,0,0,0,39.7,7.21a6.83,6.83,0,0,0-4.33,1.32,4.07,4.07,0,0,0-1.69,3.34A3.8,3.8,0,0,0,34.29,14a4.7,4.7,0,0,0,1.86,1.52,15.38,15.38,0,0,0,3.53,1.11A8.71,8.71,0,0,1,43.08,18a2.7,2.7,0,0,1,1.13,2.28,2.61,2.61,0,0,1-1.2,2.2,5.37,5.37,0,0,1-3.2.85,5.71,5.71,0,0,1-3.4-.92A3.29,3.29,0,0,1,35,19.84H33.15A4.45,4.45,0,0,0,35,23.5,7.66,7.66,0,0,0,39.78,25a7.46,7.46,0,0,0,4.56-1.3,4.09,4.09,0,0,0,1.75-3.46,4.08,4.08,0,0,0-.6-2.26A4.83,4.83,0,0,0,43.65,16.36Z" style="fill:#ffffff"/><path d="M57,7.22a7.18,7.18,0,0,0-6.66,4.17,10,10,0,0,0-1,4.44l-.07.44a9.2,9.2,0,0,0,2.12,6.34A7,7,0,0,0,56.89,25a7.39,7.39,0,0,0,4-1.07,7.14,7.14,0,0,0,2.69-3.06,10.16,10.16,0,0,0,1-4.46V16a9.22,9.22,0,0,0-2.07-6.4A7,7,0,0,0,57,7.22Zm4.14,14.13a5.37,5.37,0,0,1-8.31,0,7.76,7.76,0,0,1-1.59-5V16a8,8,0,0,1,1.68-5.17,5.05,5.05,0,0,1,4.12-2,5.21,5.21,0,0,1,3,.89,5.84,5.84,0,0,1,2,2.52,8.7,8.7,0,0,1,.7,3.55v.36A8,8,0,0,1,61.12,21.35Z" style="fill:#ffffff"/><path d="M75.21,1.66a7.37,7.37,0,0,1,1.72.19L77.07.28a7.29,7.29,0,0,0-2-.27,4.89,4.89,0,0,0-3.73,1.46,5.63,5.63,0,0,0-1.33,4V7.54H67.18V9.09H70V24.63h2V9.09h4V7.54H72V5.42a4,4,0,0,1,.77-2.76A3.09,3.09,0,0,1,75.21,1.66Z" style="fill:#ffffff"/><path d="M84.13,23.31a2,2,0,0,1-1.71-.7A3.63,3.63,0,0,1,82,20.49V9.09h3.3V7.54H82V3.16H80V7.54H77V9.09h3V20.5a5.32,5.32,0,0,0,.9,3.33A3.37,3.37,0,0,0,83.74,25a6.19,6.19,0,0,0,2-.27l-.08-1.54A11.77,11.77,0,0,1,84.13,23.31Z" style="fill:#ffffff"/><polygon points="104.98 20.68 104.62 22.34 104.18 20.54 100.12 7.54 98.51 7.54 94.4 20.62 94.02 22.17 93.69 20.7 90.03 7.53 88.08 7.53 93.09 24.63 94.71 24.63 99.01 11.13 99.22 10.18 99.43 11.11 103.82 24.67 105.49 24.67 110.49 7.57 108.49 7.57 104.98 20.68" style="fill:#ffffff"/><path d="M126.32,20.75V12.66a5.13,5.13,0,0,0-1.7-4,6.66,6.66,0,0,0-4.51-1.43,7.3,7.3,0,0,0-4.66,1.49,4.4,4.4,0,0,0-1.9,3.53h1.9a3,3,0,0,1,1.3-2.43,5.16,5.16,0,0,1,3.27-1,4.67,4.67,0,0,1,3.3,1,3.75,3.75,0,0,1,1.13,2.88v2H121a10,10,0,0,0-5.83,1.44,4.58,4.58,0,0,0-2.08,4,4.48,4.48,0,0,0,1.52,3.48,5.73,5.73,0,0,0,4,1.37,7.77,7.77,0,0,0,3.26-.7,6.59,6.59,0,0,0,2.54-2,9,9,0,0,0,.36,2.39l2.05,0v-.19A10,10,0,0,1,126.32,20.75Zm-1.91-.85a5.39,5.39,0,0,1-2.17,2.45,6.35,6.35,0,0,1-3.39.92h0a4,4,0,0,1-2.78-1A3.06,3.06,0,0,1,115,19.91a3.11,3.11,0,0,1,1.6-2.76,8.47,8.47,0,0,1,4.42-1h3.39Z" style="fill:#ffffff"/><path d="M133,10.26V7.54h-2V24.63h2V12.9A5.28,5.28,0,0,1,134.64,10a4.62,4.62,0,0,1,3-1,7.07,7.07,0,0,1,1.28.14l0-1.68a3.11,3.11,0,0,0-1.25-.21A4.87,4.87,0,0,0,133,10.26Z" style="fill:#ffffff"/><path d="M148.37,7.22a6.57,6.57,0,0,0-3.7,1.13,7.61,7.61,0,0,0-2.66,3.1,10.06,10.06,0,0,0-1,4.44v.68a9.34,9.34,0,0,0,1,4.31,7.32,7.32,0,0,0,2.74,3,7.42,7.42,0,0,0,3.94,1.07,6.9,6.9,0,0,0,6.06-3l-1.19-.9a5.93,5.93,0,0,1-2.09,1.79,6.15,6.15,0,0,1-2.68.55,5.3,5.3,0,0,1-4.19-1.94,7.15,7.15,0,0,1-1.67-4.84v-.36h12.2v-1a8.62,8.62,0,0,0-1.82-5.81A6.17,6.17,0,0,0,148.37,7.22Zm4.86,7.37H143a7.23,7.23,0,0,1,1.78-4.2,4.73,4.73,0,0,1,3.59-1.56h0a4.36,4.36,0,0,1,3.47,1.55,6.27,6.27,0,0,1,1.41,4Z" style="fill:#ffffff"/><path d="M158.89,22.17a1.27,1.27,0,0,0-1,.39,1.34,1.34,0,0,0-.36.94,1.23,1.23,0,0,0,.36.91,1.33,1.33,0,0,0,1,.36,1.36,1.36,0,0,0,1-.36,1.22,1.22,0,0,0,.36-.91,1.32,1.32,0,0,0-.36-.94A1.3,1.3,0,0,0,158.89,22.17Z" style="fill:#ffffff"/><path d="M167,1.33a1.24,1.24,0,0,0-1,.37,1.27,1.27,0,0,0-.35.9A1.22,1.22,0,0,0,167,3.85a1.28,1.28,0,0,0,1-.36,1.22,1.22,0,0,0,.36-.89A1.25,1.25,0,0,0,167,1.33Z" style="fill:#ffffff"/><rect x="166.03" y="7.54" width="2" height="17.06" style="fill:#ffffff"/><path d="M181.48,7.18A6.24,6.24,0,0,0,178.3,8,6.47,6.47,0,0,0,176,10.46l-.1-2.92h-1.88V24.63h2V13a6.25,6.25,0,0,1,1.88-3,4.78,4.78,0,0,1,3.1-1.1A3.81,3.81,0,0,1,184,10a5.22,5.22,0,0,1,1,3.39V24.63h1.9V13.38a7,7,0,0,0-1.36-4.65A5.13,5.13,0,0,0,181.48,7.18Z" style="fill:#ffffff"/><path d="M194.36,1.47a5.63,5.63,0,0,0-1.33,4V7.54H190.2V9.09H193V24.63h2V9.09h4V7.54h-4V5.42a4,4,0,0,1,.77-2.76,3.09,3.09,0,0,1,2.43-1,7.37,7.37,0,0,1,1.72.19L200.1.28a7.29,7.29,0,0,0-2-.27A4.89,4.89,0,0,0,194.36,1.47Z" style="fill:#ffffff"/><path d="M208.85,7.22a7.18,7.18,0,0,0-6.66,4.17,10,10,0,0,0-1,4.44l-.07.44a9.2,9.2,0,0,0,2.12,6.34A7,7,0,0,0,208.76,25a7.39,7.39,0,0,0,4-1.07,7.14,7.14,0,0,0,2.69-3.06,10.16,10.16,0,0,0,1-4.46V16a9.22,9.22,0,0,0-2.07-6.4A7,7,0,0,0,208.85,7.22ZM213,21.35a5.37,5.37,0,0,1-8.31,0,7.76,7.76,0,0,1-1.59-5l0-.34a8,8,0,0,1,1.69-5.21,5.05,5.05,0,0,1,4.12-2,5.21,5.21,0,0,1,3,.89,5.84,5.84,0,0,1,2,2.52,8.7,8.7,0,0,1,.73,3.59v.36A8,8,0,0,1,213,21.35Z" style="fill:#ffffff"/><path d="M222,10.26l-.1-2.72H220V24.63h2V12.9A5.28,5.28,0,0,1,223.66,10a4.62,4.62,0,0,1,3-1,7.07,7.07,0,0,1,1.28.14l0-1.68a3.11,3.11,0,0,0-1.25-.21A4.87,4.87,0,0,0,222,10.26Z" style="fill:#ffffff"/><path d="M249.42,7.22a6.78,6.78,0,0,0-3.38.86,6.42,6.42,0,0,0-2.46,2.48q-1.13-3.32-5.13-3.32a6.5,6.5,0,0,0-3.16.77A6.05,6.05,0,0,0,233,10.32l-.1-2.78h-1.89V24.63h2V12.87a5.86,5.86,0,0,1,1.79-3,4.77,4.77,0,0,1,3.06-1A4.12,4.12,0,0,1,241,9.95a4.68,4.68,0,0,1,1,3.28v11.4h2V13.32a4.58,4.58,0,0,1,1.5-3.14A5,5,0,0,1,249,8.86,4,4,0,0,1,252.15,10a5.1,5.1,0,0,1,.9,3.4V24.63h2V13.22Q254.93,7.22,249.42,7.22Z" style="fill:#ffffff"/><path d="M265.89,7.22a6.57,6.57,0,0,0-3.7,1.13,7.61,7.61,0,0,0-2.66,3.1,10.06,10.06,0,0,0-1,4.44v.68a9.34,9.34,0,0,0,1,4.31,7.32,7.32,0,0,0,2.74,3,7.42,7.42,0,0,0,3.94,1.07,6.9,6.9,0,0,0,6-3L271,21a5.93,5.93,0,0,1-2.13,1.8,6.15,6.15,0,0,1-2.68.55A5.3,5.3,0,0,1,262,21.42a7.15,7.15,0,0,1-1.6-4.85v-.36h12.2v-1a8.62,8.62,0,0,0-1.82-5.81A6.17,6.17,0,0,0,265.89,7.22Zm4.86,7.37H260.49a7.23,7.23,0,0,1,1.78-4.2,4.73,4.73,0,0,1,3.59-1.56h0a4.36,4.36,0,0,1,3.47,1.55,6.27,6.27,0,0,1,1.41,4Z" style="fill:#ffffff"/><path d="M282.75,7.26a4.87,4.87,0,0,0-4.7,3l-.1-2.72H276V24.63h2V12.9A5.28,5.28,0,0,1,279.67,10a4.62,4.62,0,0,1,3-1,7.07,7.07,0,0,1,1.28.14l0-1.68A3.11,3.11,0,0,0,282.75,7.26Z" style="fill:#ffffff"/></svg>